<?xml version="1.0" encoding="utf-8"?>
<!-- Generator: Adobe Illustrator 24.1.0, SVG Export Plug-In . SVG Version: 6.00 Build 0)  -->
<svg version="1.1" id="Calque_1" xmlns="http://www.w3.org/2000/svg" xmlns:xlink="http://www.w3.org/1999/xlink" x="0px" y="0px"
	 viewBox="0 0 100 100" style="enable-background:new 0 0 100 100;" xml:space="preserve">
<style type="text/css">
	.st0{fill:#fff;}
</style>
<g>
	<path class="st0" d="M44.8,5.3c-1.2,0.2-1.7,4.7-2.6,4.9c-2.4,0.5-8,2.4-10.1,3.5c-0.8,0.5-3.7-3.1-4.6-2.6
		C15.9,18.1,7.5,30,5.6,44.4c0,0.5-0.2,0.8-0.2,1.2c0,0.8,4.3,1.8,4.3,2.4c-0.3,4.6,0.3,9.2,1.5,13.5c0.3,0.9-3.5,3.4-3.2,4.3
		c4.3,11.5,13.2,20.8,24.5,25.7c1.4,0.6,4.1-3.1,5.4-2.8c2.6,0.8,5.4,1.4,8.3,1.7c3.2,0.3,6.3,0.3,9.3-0.2c1.2-0.2,3.4,4,4.6,3.7
		c11.9-2.8,22.2-10.1,28.5-20.5c0.6-0.9-2.8-4.1-2.1-5.1c1.7-3.4,2.9-7,3.7-10.9c0.2-0.9,4.7-1.2,4.7-2.3c0-0.3,0-0.6,0.2-0.9
		c1.1-10.9-1.7-21.1-7.3-29.5c-0.6-0.9-4.7,0.8-5.4,0c-3.4-4.4-5.2-6-10-9.2c-1.1-0.8,0-5.2-1.2-5.8c-4-2.1-8.4-3.7-13-4.4
		C53.9,4.9,49.3,4.9,44.8,5.3z M40.7,80.7c-0.6-0.2-2.4,2.6-3.2,2.3c-5.1-2-9.5-5.1-13.2-9c-0.5-0.6,1.5-3.2,1.1-3.7
		c-3.2-4-5.5-8.7-6.4-13.9c-0.2-0.8-3.5-1.1-3.5-2c-0.3-2.4-0.3-5.1,0-7.7c0.2-1.7,0.5-3.2,0.8-4.7c0.2-0.8,3.5-0.6,3.7-1.4
		c1.4-4.4,3.7-8.3,6.6-11.6c0.5-0.6-1.2-3.4-0.8-4c1.7-1.7,3.7-3.2,5.8-4.6c0.6-0.5,2.9,2,3.5,1.7c5.5-3.1,11.9-4.4,18.5-3.8
		c7.3,0.8,13.8,3.8,18.8,8.6c0.5,0.5,3.2-1.4,3.7-0.8c3.4,3.5,5.8,7.7,7.5,12.4c0.3,0.8-2.6,2.4-2.4,3.1c1.1,3.7,1.4,7.7,1.1,11.8
		c-0.6,5.8-2.6,11-5.8,15.5c-0.5,0.6,1.7,3.2,1.1,3.8c-2.1,2.6-4.7,4.9-7.7,6.9c-0.6,0.5-2.9-2-3.5-1.7C60.6,81,54,82.5,47.1,81.9
		C45,81.7,42.8,81.3,40.7,80.7z"/>
	<g>
		<path class="st0" d="M31.2,52.5c0.5,3.8,2.1,7.3,4.6,10.3c0.3,0.5,0.3,0.8,0,1.2c-0.3,0.3-2.6,2.6-3.1,2.9c-0.3,0.3-0.8,0.3-1.1,0
			c-3.4-3.7-5.5-8.4-6.1-13.6c0-0.6,0.2-0.9,0.8-0.9c0.6,0,3.7-0.5,4.1-0.5C30.9,51.9,31.2,52,31.2,52.5z"/>
		<path class="st0" d="M69.6,52c0.3-2.8,0-5.5-0.9-8c-0.2-0.5,0.2-0.9,0.5-0.9c0.3-0.2,3.7-1.4,4-1.4c0.3-0.2,0.8-0.2,0.9,0.5
			c1.1,3.2,1.5,6.9,1.2,10.6c-0.5,5.1-2.4,9.5-5.4,13.2c-0.5,0.6-0.9,0.5-1.2,0.2c-0.5-0.3-2.6-2.3-3.1-2.8c-0.5-0.3-0.5-0.8,0-1.2
			C67.8,59.2,69.2,55.9,69.6,52z"/>
		<path class="st0" d="M43.6,68.3c1.5,0.6,3.2,0.9,4.9,1.1c4.4,0.5,8.7-0.6,12.2-2.9c0.3-0.2,0.8-0.2,0.9,0.3
			c0.3,0.5,2.1,3.2,2.4,3.5c0.3,0.3,0.2,0.8-0.2,0.9c-4.6,2.9-10.3,4.4-16.1,3.8c-2.3-0.2-4.4-0.8-6.4-1.5C41,73.3,40.7,73,41,72.4
			c0.3-0.6,1.4-3.4,1.5-3.8C42.7,68.1,43,68,43.6,68.3z"/>
		<path class="st0" d="M26,43.9c-0.2,0.6,0.2,0.9,0.6,0.9c0.5,0.2,3.5,0.8,4.1,0.9c0.5,0.2,0.8-0.2,0.9-0.6c0.8-2.9,2.3-5.5,4.1-7.8
			c0.5-0.5,0.2-0.9-0.2-1.2c-0.3-0.3-2.9-2.6-3.1-2.9c-0.3-0.2-0.8-0.2-1.1,0.2C29.1,36.4,27.1,39.9,26,43.9z"/>
		<path class="st0" d="M68.4,32.7c-4-4.1-9.3-6.9-15.6-7.5c-5.2-0.5-10.1,0.6-14.4,2.9c-0.8,0.5-0.5,0.9-0.3,1.1
			c0.2,0.2,2,3.4,2.1,3.5c0.2,0.2,0.3,0.8,1.2,0.3c3.2-1.7,6.9-2.4,10.9-2.1c4.6,0.5,8.7,2.6,11.8,5.7c0.5,0.5,0.9,0.3,1.2,0
			s2.9-2.6,3.2-2.9C68.7,33.4,68.9,33.2,68.4,32.7z"/>
	</g>
</g>
</svg>
